<?xml version="1.0" encoding="iso-8859-1"?>
<!-- Generator: Adobe Illustrator 19.0.0, SVG Export Plug-In . SVG Version: 6.00 Build 0)  -->
<svg version="1.1" id="Layer_1" xmlns="http://www.w3.org/2000/svg" xmlns:xlink="http://www.w3.org/1999/xlink" x="0px" y="0px"
	 viewBox="0 0 512 512" style="enable-background:new 0 0 512 512;" xml:space="preserve">
<rect x="21.664" y="68.64" style="fill:#F33052;" width="468.64" height="286"/>
<path d="M480,77.632V346.96H32V77.632H480 M488,45.632H24c-13.2,0-24,10.8-24,24V354.96c0,13.2,10.8,24,24,24h464
	c13.2,0,24-10.8,24-24V69.632C512,56.432,501.2,45.632,488,45.632L488,45.632z"/>
<rect x="216" y="378.976" style="fill:#494949;" width="80" height="71.328"/>
<rect x="142.992" y="434.368" width="225.92" height="32"/>
<polygon points="216,378.976 282.752,378.976 216,408.72 "/>
<g style="opacity:0.35;">
	<polygon style="fill:#FFFFFF;" points="32,77.632 168,77.632 32,160.64 	"/>
</g>
<g>
	<path style="fill:#FFFFFF;" d="M246.24,167.536L222.4,256.72h-25.024l-12.416-45.728c-1.136-4.128-2.464-9.664-3.984-16.592
		l-1.248-5.488h-0.592l-1.312,5.552l-1.232,5.488c-0.912,3.696-1.904,7.408-2.944,11.104l-12.736,45.664H136.16l-23.12-89.184
		h17.248l12.864,48.944c0.784,3.136,1.76,7.472,2.944,12.992l1.376,6.528l1.312,6.528h0.592c0.704-2.88,1.216-5.04,1.568-6.528
		l1.568-6.464c0.832-3.392,1.984-7.728,3.456-12.992l13.712-48.992h19.856l13.392,48.992c1.136,4.176,2.24,8.512,3.328,12.992
		L207.76,236l1.568,6.528h0.528l1.44-6.528l1.376-6.528c1.136-5.28,2.16-9.632,3.072-13.072l13.2-48.864L246.24,167.536
		L246.24,167.536z"/>
	<path style="fill:#FFFFFF;" d="M269.296,181.776v23.008h41.808v12.48h-41.808v25.216h44.48v14.24h-61.408v-89.184h61.008v14.24
		H269.296z"/>
	<path style="fill:#FFFFFF;" d="M326.4,256.72v-89.184h43.824c10.288,0,17.28,1.648,21.008,4.944
		c3.712,3.296,5.584,9.488,5.584,18.592c0,11.008-4.368,17.504-13.12,19.472v0.336c10.192,1.568,15.28,8.64,15.28,21.232
		c0,9.104-1.952,15.488-5.872,19.152s-10.768,5.488-20.512,5.488H326.4V256.72z M343.312,204.976h20.704
		c6.704,0,10.992-0.736,12.848-2.224c1.84-1.488,2.768-4.912,2.768-10.256c0-7.136-4.048-10.72-12.144-10.72h-24.176V204.976z
		 M343.312,242.48h18.544l5.952-0.128c5.696,0,9.456-0.8,11.264-2.416s2.704-5.008,2.704-10.192c0-5.392-0.944-8.8-2.832-10.192
		c-1.904-1.392-6.576-2.096-14.016-2.096h-21.632v25.024H343.312z"/>
</g>
<g>
</g>
<g>
</g>
<g>
</g>
<g>
</g>
<g>
</g>
<g>
</g>
<g>
</g>
<g>
</g>
<g>
</g>
<g>
</g>
<g>
</g>
<g>
</g>
<g>
</g>
<g>
</g>
<g>
</g>
</svg>
